<?xml version="1.0" encoding="UTF-8" standalone="no"?>
<svg
   viewBox="0 0 256 256"
   opacity="0.75"
   version="1.1"
   id="svg3"
   sodipodi:docname="BitCapIPRCenterLogo.svg"
   inkscape:version="1.3.2 (091e20e, 2023-11-25, custom)"
   xmlns:inkscape="http://www.inkscape.org/namespaces/inkscape"
   xmlns:sodipodi="http://sodipodi.sourceforge.net/DTD/sodipodi-0.dtd"
   xmlns="http://www.w3.org/2000/svg"
   xmlns:svg="http://www.w3.org/2000/svg">
  <defs
     id="defs3">
    <inkscape:path-effect
       effect="fill_between_many"
       method="originald"
       linkedpaths="#path1,0,1|#rect1,0,1|#path2,0,1|#path3,0,1|"
       id="path-effect3" />
  </defs>
  <sodipodi:namedview
     id="namedview3"
     pagecolor="#ffffff"
     bordercolor="#000000"
     borderopacity="0.25"
     inkscape:showpageshadow="2"
     inkscape:pageopacity="0.0"
     inkscape:pagecheckerboard="0"
     inkscape:deskcolor="#d1d1d1"
     inkscape:zoom="3.2620825"
     inkscape:cx="201.86492"
     inkscape:cy="132.89057"
     inkscape:window-width="2560"
     inkscape:window-height="1377"
     inkscape:window-x="-8"
     inkscape:window-y="-8"
     inkscape:window-maximized="1"
     inkscape:current-layer="svg3"
     showguides="false" />
  <rect
     fill="#ffffff"
     width="13.238898"
     height="110.24771"
     x="150"
     y="73"
     id="rect1" />
  <path
     fill="#ffffff"
     d="M 195.92733,168.4642 V 82.994222 c 0.51815,-5.203109 7.22998,-8.673213 7.22998,-8.673213 h -33.46678 c 0.54626,0.150172 1.0604,0.30439 1.54641,0.470797 5.14133,1.72084 8.50728,6.721038 8.50728,12.196074 v 82.21904 c 0.80333,7.34201 -7.84452,12.13927 -7.84452,12.13927 h 33.83229 c -10.47946,-4.42793 -9.80466,-12.88199 -9.80466,-12.88199 z"
     id="path2" />
  <path
     fill="#ffffff"
     d="m 255.98037,100.40155 c -0.20887,-7.30548 -3.21333,-14.39991 -8.76434,-19.27834 -14.30733,-12.614115 -36.67611,-8.117184 -36.67611,-8.117184 -6.27,0.694013 -1.00416,1.310924 -1.00416,1.310924 7.41876,0.872597 14.99419,3.271228 20.36045,8.632637 5.5952,5.588683 7.67182,13.543533 7.45893,21.226443 -0.20887,7.49218 -2.17301,15.82854 -7.91281,21.10472 -3.63909,3.34834 -8.19802,5.59273 -12.87742,7.14718 -5.62333,1.87101 -11.84914,3.08048 -17.81387,3.08048 h 22.82665 c 30.81581,-1.56663 34.74812,-22.77686 34.40268,-35.10686 z"
     id="path3" />
  <rect
     style="fill:#eb993b;fill-opacity:1;fill-rule:nonzero;stroke-width:0.990746"
     id="rect10"
     width="35"
     height="35"
     x="85"
     y="70" />
  <rect
     style="fill:#eb993b;fill-opacity:1;fill-rule:nonzero;stroke-width:0.990746"
     id="rect10-3"
     width="35"
     height="35"
     x="85"
     y="111" />
  <rect
     style="fill:#eb993b;fill-opacity:1;fill-rule:nonzero;stroke-width:0.99075"
     id="rect10-33-2-0"
     width="35"
     height="35"
     x="85"
     y="152" />
  <rect
     style="fill:#eb993b;fill-opacity:1;fill-rule:nonzero;stroke-width:0.99075"
     id="rect10-33-2"
     width="35"
     height="35"
     x="44"
     y="111" />
  <rect
     style="fill:#eb993b;fill-opacity:1;fill-rule:nonzero;stroke-width:0.99075"
     id="rect10-33-2-0-5"
     width="35"
     height="35"
     x="3"
     y="152" />
  <rect
     style="display:inline;fill:#eb993b;fill-opacity:1;fill-rule:nonzero;stroke-width:0.990746"
     id="rect10-1"
     width="35"
     height="35"
     x="44"
     y="152" />
</svg>
